<svg version="1.2" xmlns="http://www.w3.org/2000/svg" viewBox="0 0 58 58" width="58" height="58"><defs><linearGradient id="P" gradientUnits="userSpaceOnUse"/><linearGradient id="g1" x2="1" href="#P" gradientTransform="matrix(54,0,0,32,2,29)"><stop stop-color="#ff4308"/><stop offset="1" stop-color="#fb8500"/></linearGradient><linearGradient id="g2" x2="1" href="#P" gradientTransform="matrix(35.742,0,0,16.459,10.753,29.026)"><stop stop-color="#ff4308"/><stop offset="1" stop-color="#fb8500"/></linearGradient><linearGradient id="g3" x2="1" href="#P" gradientTransform="matrix(7.654,0,0,15.901,25.213,29.024)"><stop stop-color="#ff4308"/><stop offset="1" stop-color="#fb8500"/></linearGradient></defs><style>.a{opacity:.4;fill:none;stroke:url(#g1);stroke-miterlimit:100;stroke-width:3}.b{fill:url(#g2)}.c{fill:url(#g3)}</style><path fill-rule="evenodd" class="a" d="m5 13h48c1.7 0 3 1.3 3 3v26c0 1.7-1.3 3-3 3h-48c-1.7 0-3-1.3-3-3v-26c0-1.7 1.3-3 3-3z"/><path fill-rule="evenodd" class="b" d="m11.1 28c-0.5 0.5-0.5 1.4 0 1.9l6.8 6.8c0.6 0.5 1.4 0.5 2 0 0.5-0.6 0.5-1.4 0-2l-5.9-5.8 5.8-5.8c0.6-0.5 0.6-1.4 0-1.9-0.5-0.5-1.3-0.5-1.9 0 0 0-6.8 6.8-6.8 6.8zm28.2-6.6c-0.5-0.5-1.4-0.5-1.9 0-0.5 0.5-0.5 1.4 0 1.9l5.8 5.8-5.8 5.8c-0.5 0.6-0.5 1.4 0 2 0.5 0.5 1.4 0.5 1.9 0l6.8-6.8c0.5-0.5 0.5-1.4 0-1.9 0 0-6.8-6.8-6.8-6.8z"/><path fill-rule="evenodd" class="c" d="m31 21.1l1.9 0.6-5.8 15.3-1.9-0.7z"/></svg>