<svg version="1.2" xmlns="http://www.w3.org/2000/svg" viewBox="0 0 50 44" width="50" height="44"><defs><linearGradient id="P" gradientUnits="userSpaceOnUse"/><linearGradient id="g1" x2="1" href="#P" gradientTransform="matrix(47.143,0,0,42.13,1.686,21.747)"><stop stop-color="#ff4308"/><stop offset="1" stop-color="#fb8500"/></linearGradient><linearGradient id="g2" x2="1" href="#P" gradientTransform="matrix(27.443,0,0,22.512,11.279,25)"><stop stop-color="#ff4308"/><stop offset="1" stop-color="#fb8500"/></linearGradient></defs><style>.a{opacity:.4;fill:url(#g1)}.b{fill:url(#g2)}</style><path fill-rule="evenodd" class="a" d="m4.1 0.7h42.3l0.6 0.3c0.3 0.1 0.7 0.4 0.9 0.6 0.2 0.2 0.5 0.6 0.9 1.4v39.4l-0.3 0.4h-46.5l-0.3-0.4v-39.4l0.3-0.5c0.1-0.2 0.4-0.6 0.6-0.9 0.2-0.2 0.6-0.5 0.9-0.6zm-0.6 1.8c-0.2 0.2-0.4 0.5-0.5 0.7 0 0.1 0 0.8 0 1.3v1.1h27.3c0.1-1.2 0.2-1.7 0.3-2.1 0.1-0.3 0.3-0.6 0.4-0.8 0.1-0.2 0.3-0.5 0.4-0.6l0.2-0.2c-20.4 0-27.2 0-27.5 0.1-0.1 0.1-0.4 0.3-0.6 0.5zm29.7-0.2c-0.2 0.1-0.5 0.3-0.7 0.6-0.3 0.2-0.5 0.6-0.7 0.8-0.2 0.5-0.2 0.7-0.2 1.7-0.1 1.1-0.1 1.1-0.3 1.3-0.2 0.1-5.4 0.1-16.8 0.1h-11.5v1.3h44.6v-5c-0.4-0.5-0.7-0.8-0.9-0.9l-0.3-0.3c-9.5 0-12.3 0-12.5 0.1-0.1 0-0.5 0.1-0.7 0.3zm-30.2 39.3h44.6v-32.3h-44.6zm31.6-38.4c0.2 0 0.4 0 0.6 0.1 0.2 0 0.5 0.2 0.7 0.4 0.2 0.2 0.4 0.6 0.5 0.7 0.1 0.2 0.1 0.5 0.1 0.6 0 0.2 0 0.4-0.1 0.6-0.1 0.2-0.3 0.5-0.5 0.7-0.2 0.2-0.5 0.4-0.7 0.5-0.2 0-0.4 0.1-0.5 0.1-0.2 0-0.4-0.1-0.6-0.1-0.2-0.1-0.5-0.3-0.7-0.5q-0.4-0.4-0.5-0.7c-0.1-0.2-0.1-0.4-0.1-0.6 0-0.1 0-0.4 0.1-0.6 0-0.1 0.2-0.4 0.4-0.6 0.2-0.2 0.5-0.4 0.7-0.5 0.2-0.1 0.5-0.1 0.6-0.1zm-0.6 1.8c0 0.1 0.1 0.3 0.2 0.4 0.2 0.1 0.3 0.2 0.5 0.2 0.1 0 0.3-0.1 0.4-0.2 0.1-0.1 0.2-0.3 0.2-0.4 0-0.1-0.1-0.3-0.2-0.4-0.1-0.1-0.3-0.2-0.5-0.2-0.1 0-0.3 0.1-0.4 0.2-0.1 0.1-0.2 0.3-0.2 0.4zm5.5-1.8c0.2 0 0.5 0 0.7 0.1 0.2 0 0.4 0.2 0.7 0.4 0.2 0.2 0.4 0.6 0.4 0.7 0.1 0.2 0.1 0.5 0.1 0.6 0 0.2 0 0.4-0.1 0.6 0 0.2-0.2 0.5-0.4 0.7-0.2 0.2-0.5 0.4-0.7 0.5-0.2 0-0.5 0.1-0.6 0.1-0.1 0-0.4-0.1-0.6-0.1-0.1-0.1-0.4-0.3-0.7-0.5q-0.4-0.4-0.5-0.7c0-0.2-0.1-0.4-0.1-0.6 0-0.1 0.1-0.4 0.1-0.6 0.1-0.1 0.3-0.4 0.5-0.6 0.1-0.2 0.5-0.4 0.6-0.5 0.2-0.1 0.5-0.1 0.6-0.1zm-0.5 1.8c0 0.1 0.1 0.3 0.2 0.4 0.1 0.1 0.3 0.2 0.4 0.2 0.1 0 0.3-0.1 0.4-0.2 0.1-0.1 0.2-0.3 0.2-0.4 0-0.1-0.1-0.3-0.2-0.4-0.1-0.1-0.3-0.2-0.4-0.2-0.1 0-0.3 0.1-0.4 0.2-0.1 0.1-0.2 0.3-0.2 0.4zm5.5-1.8c0.1 0 0.4 0 0.6 0.1 0.2 0 0.5 0.2 0.7 0.4 0.2 0.2 0.4 0.6 0.5 0.7 0 0.2 0.1 0.5 0.1 0.6 0 0.2-0.1 0.4-0.1 0.6-0.1 0.2-0.3 0.5-0.5 0.7-0.2 0.2-0.5 0.4-0.7 0.5-0.2 0-0.4 0.1-0.6 0.1-0.1 0-0.4-0.1-0.5-0.1-0.2-0.1-0.5-0.3-0.7-0.5q-0.4-0.4-0.5-0.7c-0.1-0.2-0.1-0.4-0.1-0.6 0-0.1 0-0.4 0.1-0.6 0-0.1 0.2-0.4 0.4-0.6 0.2-0.2 0.5-0.4 0.7-0.5 0.1-0.1 0.4-0.1 0.6-0.1zm-0.6 1.8c0 0.1 0.1 0.3 0.2 0.4 0.1 0.1 0.3 0.2 0.4 0.2 0.1 0 0.3-0.1 0.4-0.2 0.2-0.1 0.2-0.3 0.2-0.4 0-0.1 0-0.3-0.2-0.4-0.1-0.1-0.3-0.2-0.4-0.2-0.1 0-0.3 0.1-0.4 0.2-0.1 0.1-0.2 0.3-0.2 0.4zm-39.3 5.6h41.4l0.4 0.4v29l-0.4 0.4h-41.4l-0.2-0.2c-0.2-0.2-0.2-0.3-0.2-1.7 0-1.4 0-1.4 0.2-1.6 0.1-0.1 0.3-0.2 0.4-0.2 0.1 0 0.3 0.1 0.4 0.2 0.2 0.2 0.2 0.2 0.2 2.2h39.7v-27.3h-39.7v23.2l-0.2 0.2c-0.1 0.1-0.3 0.2-0.4 0.2-0.1 0-0.3-0.1-0.6-0.4v-24z"/><path fill-rule="evenodd" class="b" d="m11.8 13.8l18.3-0.1 0.2 0.2c0.1 0 0.2 0.2 0.3 0.3 0.1 0.2 0.1 0.4 0.1 2.8 0 2.4 0 2.5-0.1 2.7q-0.1 0.3-0.3 0.4c-0.3 0.1-0.4 0.1-9.3 0.1-9 0-9.1 0-9.3-0.1q-0.2-0.1-0.3-0.4c-0.1-0.2-0.1-0.3-0.1-2.7 0-2.4 0-2.6 0.1-2.8 0-0.1 0.2-0.3 0.3-0.3zm1 4.8h16.2v-3.2h-16.2zm22.6-4.9c0.4 0 0.6 0.1 1 0.2 0.2 0.1 0.5 0.2 0.7 0.3 0.2 0.1 0.4 0.3 0.6 0.5 0.2 0.2 0.4 0.4 0.5 0.6 0.1 0.2 0.2 0.5 0.3 0.8 0.1 0.3 0.1 0.5 0.1 0.9 0 0.4 0 0.6-0.1 0.9-0.1 0.2-0.2 0.6-0.3 0.7-0.1 0.2-0.4 0.5-0.6 0.7-0.2 0.2-0.5 0.4-0.6 0.5-0.2 0.1-0.6 0.2-0.8 0.3-0.2 0-0.6 0.1-0.8 0.1-0.2 0-0.5-0.1-0.8-0.1-0.2-0.1-0.5-0.2-0.7-0.3-0.2-0.1-0.5-0.4-0.7-0.6-0.3-0.2-0.5-0.5-0.6-0.7-0.1-0.2-0.2-0.5-0.3-0.8 0-0.2-0.1-0.5-0.1-0.7 0-0.2 0.1-0.6 0.1-0.8 0.1-0.3 0.2-0.6 0.3-0.8 0.1-0.1 0.3-0.4 0.5-0.6 0.2-0.2 0.5-0.5 0.6-0.6 0.2-0.1 0.5-0.2 0.8-0.3 0.3-0.1 0.5-0.1 0.9-0.2zm-1 2c-0.1 0.1-0.2 0.3-0.3 0.4-0.1 0.1-0.2 0.4-0.2 0.5-0.1 0.2-0.1 0.4-0.1 0.5 0 0.2 0.1 0.4 0.2 0.5 0 0.1 0.1 0.3 0.2 0.5 0.1 0.1 0.4 0.2 0.5 0.3 0.3 0.1 0.4 0.1 0.7 0.1 0.3 0 0.5 0 0.7-0.1 0.2-0.1 0.4-0.2 0.5-0.3 0.1-0.2 0.2-0.4 0.3-0.5 0.1-0.2 0.1-0.3 0.1-0.6 0-0.3 0-0.5-0.1-0.7-0.1-0.1-0.2-0.3-0.3-0.4-0.1-0.1-0.3-0.3-0.5-0.4-0.1-0.1-0.4-0.1-0.6-0.1-0.2 0-0.4 0-0.6 0-0.1 0.1-0.4 0.2-0.5 0.3zm-20 6.1c0.2 0 0.5 0 0.8 0.1 0.2 0.1 0.6 0.2 0.7 0.3 0.2 0.1 0.5 0.3 0.8 0.5 0.2 0.3 0.4 0.6 0.5 0.8 0.1 0.1 0.3 0.5 0.3 0.7 0.1 0.3 0.1 0.6 0.1 0.8 0 0.2 0 0.5-0.1 0.8 0 0.2-0.2 0.6-0.3 0.7-0.1 0.2-0.3 0.5-0.5 0.8-0.3 0.2-0.6 0.4-0.8 0.5-0.1 0.1-0.5 0.2-0.7 0.3-0.2 0.1-0.6 0.1-0.8 0.1-0.2 0-0.5 0-0.8-0.1-0.2-0.1-0.5-0.2-0.7-0.3-0.2-0.1-0.5-0.3-0.7-0.5-0.2-0.2-0.4-0.4-0.5-0.6-0.1-0.2-0.3-0.5-0.4-0.8-0.1-0.3-0.1-0.5-0.1-0.9 0-0.4 0-0.6 0.1-0.9 0.1-0.3 0.3-0.6 0.4-0.8 0.1-0.2 0.3-0.4 0.5-0.6 0.2-0.2 0.5-0.4 0.7-0.5 0.2-0.1 0.5-0.2 0.7-0.3 0.2-0.1 0.6-0.1 0.8-0.1zm-1 1.9c-0.1 0.1-0.3 0.3-0.3 0.4-0.1 0.2-0.2 0.4-0.2 0.6-0.1 0.1-0.1 0.3-0.1 0.5 0 0.1 0.1 0.3 0.1 0.4 0.1 0.2 0.2 0.4 0.3 0.5 0.1 0.1 0.4 0.3 0.5 0.3 0.3 0.2 0.4 0.2 0.7 0.2 0.3 0 0.5 0 0.7-0.2 0.2 0 0.4-0.2 0.5-0.3 0.1-0.1 0.2-0.3 0.3-0.5 0.1-0.1 0.1-0.3 0.1-0.6 0-0.3 0-0.5-0.1-0.6-0.1-0.2-0.2-0.4-0.3-0.5-0.1-0.1-0.3-0.3-0.5-0.3-0.1-0.1-0.4-0.2-0.6-0.2-0.2 0-0.4 0-0.6 0.1-0.1 0-0.4 0.2-0.5 0.2zm15.5-1.9c9 0 9.1 0 9.3 0.1q0.2 0.1 0.3 0.3c0.1 0.2 0.1 0.3 0.1 2.8 0 2.5 0 2.6-0.1 2.8q-0.1 0.2-0.3 0.3c-0.2 0.1-0.3 0.1-9.3 0.1-8.9 0-9 0-9.2-0.1q-0.2-0.1-0.4-0.3c-0.1-0.2-0.1-0.3-0.1-2.8 0-2.5 0-2.6 0.1-2.8q0.2-0.2 0.4-0.3c0.1-0.1 0.3-0.1 9.2-0.1zm-8.1 4.8h16.2v-3.2h-16.2zm0.1 3.2c9 0 9.1 0 9.3 0.1q0.2 0.1 0.3 0.3c0.1 0.2 0.1 0.4 0.1 2.8 0 2.4 0 2.6-0.1 2.8-0.1 0.1-0.2 0.3-0.5 0.4h-18.2l-0.2-0.1c-0.1 0-0.2-0.2-0.3-0.3-0.1-0.2-0.1-0.4-0.1-2.8 0-2.4 0-2.6 0.1-2.8q0.1-0.2 0.3-0.3c0.2-0.1 0.4-0.1 9.3-0.1zm-8.1 4.8h16.2v-3.2h-16.2zm22.6-4.8c0.2 0 0.6 0 0.8 0.1 0.2 0.1 0.6 0.2 0.8 0.3 0.1 0.1 0.4 0.3 0.6 0.5 0.2 0.2 0.5 0.5 0.6 0.6 0.1 0.2 0.2 0.5 0.3 0.8 0.1 0.3 0.1 0.5 0.1 0.9 0 0.4 0 0.6-0.1 0.9-0.1 0.2-0.2 0.6-0.3 0.7-0.1 0.2-0.3 0.5-0.5 0.7-0.2 0.1-0.4 0.3-0.6 0.4-0.2 0.1-0.5 0.3-0.7 0.4-0.4 0.1-0.6 0.1-1 0.1-0.4 0-0.6 0-0.9-0.1-0.3-0.1-0.6-0.3-0.8-0.4-0.1-0.1-0.4-0.3-0.6-0.5-0.2-0.2-0.4-0.5-0.5-0.7-0.1-0.1-0.2-0.5-0.3-0.7 0-0.3-0.1-0.6-0.1-0.8 0-0.2 0.1-0.5 0.1-0.8 0.1-0.2 0.2-0.5 0.3-0.7 0.1-0.2 0.3-0.5 0.6-0.7 0.2-0.3 0.5-0.5 0.7-0.6 0.2-0.1 0.5-0.2 0.7-0.3 0.2-0.1 0.6-0.1 0.8-0.1zm-1 1.9c-0.1 0.1-0.2 0.3-0.3 0.5-0.1 0.1-0.2 0.3-0.2 0.5-0.1 0.1-0.1 0.3-0.1 0.5 0 0.1 0.1 0.3 0.2 0.5 0 0.1 0.1 0.3 0.2 0.4 0.1 0.1 0.4 0.3 0.5 0.3 0.3 0.2 0.4 0.2 0.7 0.2 0.3 0 0.5 0 0.7-0.2 0.2 0 0.4-0.2 0.5-0.3 0.1-0.1 0.2-0.3 0.3-0.4 0.1-0.2 0.1-0.4 0.1-0.7 0-0.3 0-0.5-0.1-0.6-0.1-0.2-0.2-0.4-0.3-0.5-0.1-0.1-0.3-0.2-0.5-0.3-0.1-0.1-0.4-0.2-0.6-0.2-0.2 0-0.4 0-0.6 0.1-0.1 0-0.4 0.2-0.5 0.2z"/></svg>